<svg xmlns="http://www.w3.org/2000/svg" width="1920" height="1080"><defs><clipPath id="cn330nbz9a"><path data-name="사각형 27280" d="M0 0h1920v1080H0z" fill="rgba(0,121,250,.14)"/></clipPath></defs><g clip-path="url(#cn330nbz9a)"><path data-name="패스 17010" d="M1920 529.982V411.441a1654.111 1654.111 0 00-260.01 135.7l-6.256-9.692C1726.757 449.07 1826.26 373.038 1920 313.356V212.445c-102.67 43.411-221.255 104.255-339.607 188.138l-6.911-7.879C1676.646 266.9 1807.123 167.49 1920 95.962V6.367c-120.641 51.7-274.684 131.362-422.18 246.832l-6-9.047c72.1-95.23 157.562-176.9 240.929-244.152h-176.505c-192.5 132.894-416.189 332.887-596.691 620.929C779.268 332.887 555.6 132.894 363.1 0H186.6c83.39 67.255 168.911 148.922 241.134 244.152l-6.132 9.047C274.48 137.874 120.631 58.271 0 6.562v89.58C112.719 167.656 242.886 267.007 345.616 392.7l-6.645 7.879C220.787 316.8 102.455 256 0 212.6v100.915c93.575 59.658 192.883 135.633 265.819 223.935l-6.009 9.692A1667.294 1667.294 0 000 411.693v118.4C273.906 731.464 388.088 923.886 452.812 1080h302.429c40.807-149.665 103.873-314.62 204.314-454.091 100.913 139.471 164.136 304.426 204.95 454.091h302.485c64.779-156.143 178.935-348.607 453.01-550.018" fill="rgba(0,121,250,.14)"/></g></svg>