<svg xmlns="http://www.w3.org/2000/svg" width="719.999" height="914.005"><path d="M538.759 914.005h-50.542c.458-63.934-.084-179.1-8.86-232.061-9.511-58.23-21.479-109.289-36.587-156.094-21.53-66.7-49.41-123.966-82.865-170.2-33.293 46.231-61.078 103.5-82.58 170.2-15.074 46.765-27.057 97.824-36.634 156.095-8.469 52.957-9.03 168.124-8.611 232.06h-50.853c-.464-73.976-4.412-207.172-25.648-268.079-2.167-6.137-4.33-12.479-6.62-19.194-21.695-63.616-51.407-150.74-148.96-245.819v-83.936a773.17 773.17 0 0137.292 22.358l2.769-4.469A394.384 394.384 0 00-.001 273.457v-68.108a805.08 805.08 0 0173.785 46.414l3.064-3.632c-21.549-26.364-47.401-52.21-76.849-76.818v-61c19.085 10.5 37.755 21.677 55.492 33.226 19.632 12.782 38.6 26.332 56.392 40.274l2.827-4.171C84.234 139.454 45.64 100.627-.001 64.238V0c28.08 15.439 55.993 32.657 82.966 51.176a1020.673 1020.673 0 0145.689 33.29 1010.264 1010.264 0 0147.191 38.79 997.155 997.155 0 0147.715 44.565 981.014 981.014 0 0147.261 50.615 967.965 967.965 0 0145.83 56.939 961.254 961.254 0 0143.421 63.537 962.7 962.7 0 0143.426-63.488 969.465 969.465 0 0145.82-56.9 980.568 980.568 0 0147.24-50.586 999.444 999.444 0 0147.687-44.546 1011.004 1011.004 0 0147.161-38.779 1015.4 1015.4 0 0145.662-33.287C664.035 32.8 691.937 15.576 719.999.135v64.043c-45.658 36.4-84.246 75.248-114.694 115.462l2.768 4.171c17.806-13.939 36.792-27.486 56.429-40.264 17.748-11.547 36.42-22.727 55.497-33.221v60.98c-29.495 24.6-55.415 50.452-77.042 76.824l3.186 3.633a803.56 803.56 0 0173.856-46.433v68.163a393.777 393.777 0 00-40.042 41.373l2.886 4.469a762.878 762.878 0 0137.156-22.334v84.048C622.715 475.914 592.966 562.9 571.244 626.407c-2.335 6.826-4.54 13.274-6.753 19.517-21.384 60.9-25.3 194.1-25.732 268.079z" fill="#0079fa" opacity=".14"/></svg>