<svg xmlns="http://www.w3.org/2000/svg" width="150" height="28"><defs><style>.cls-2{fill:#fff}</style></defs><g id="logo_PC" transform="translate(-14479 1587)"><g id="logo_white" transform="translate(14479 -1586)"><g id="그룹_19880" data-name="그룹 19880"><path id="패스_10596" data-name="패스 10596" class="cls-2" d="M9.785 31.336s.1-5.082-.56-6.975-1.411-4.941-6.351-8.124C1.151 15.121.581 15.224.407 15.328s-.451.562-.4 2.607-.1 7.678 2.3 10.162 4.271 3.072 7.474 3.239" transform="translate(0 -5.028)"/><path id="패스_10597" data-name="패스 10597" class="cls-2" d="M14.907 12.9a21.188 21.188 0 0110.33-8.57c.551-.164.826-.343.871-.8.052-.437-.659-1.376-2.709-2.351C20.6-.15 14.907.005 14.907.005S9.228-.15 6.426 1.184c-2.051.974-2.767 1.916-2.714 2.35.052.453.316.632.87.8A21.178 21.178 0 0114.907 12.9" transform="translate(-1.221)"/><path id="패스_10598" data-name="패스 10598" class="cls-2" d="M19.025 32.859c1.017 0 1.954-.046 2.808-.1a54.086 54.086 0 00-.18-6.274 17.3 17.3 0 00-2.628-7.185 17.419 17.419 0 00-2.625 7.182 56.2 56.2 0 00-.175 6.274c.852.058 1.792.1 2.8.1" transform="translate(-5.339 -6.357)"/><path id="패스_10599" data-name="패스 10599" class="cls-2" d="M26.227 31.336s-.1-5.082.561-6.975 1.412-4.941 6.353-8.124c1.72-1.116 2.293-1.013 2.467-.909s.451.562.4 2.607.107 7.678-2.3 10.162-4.275 3.072-7.475 3.239" transform="translate(-8.636 -5.028)"/><path id="패스_10600" data-name="패스 10600" class="cls-2" d="M2.265 7.935a.782.782 0 01-.581-.791.822.822 0 01.816-.824.912.912 0 01.329.07 17.809 17.809 0 016.051 4.765l-.062.091a19.663 19.663 0 00-6.553-3.311" transform="translate(-.554 -2.081)"/><path id="패스_10601" data-name="패스 10601" class="cls-2" d="M1.007 10.77A.831.831 0 01.383 10a.82.82 0 01.792-.859.972.972 0 01.369.075 17.293 17.293 0 016.074 4.374l-.067.08a18.1 18.1 0 00-6.545-2.9" transform="translate(-.126 -3.01)"/><path id="패스_10602" data-name="패스 10602" class="cls-2" d="M.775 13.883A.8.8 0 01.943 12.3a1.093 1.093 0 01.319.056A16.276 16.276 0 016.74 16.1l-.061.1a15.4 15.4 0 00-5.9-2.316" transform="translate(-.056 -4.052)"/><path id="패스_10603" data-name="패스 10603" class="cls-2" d="M35.019 7.935a.786.786 0 00.592-.791.829.829 0 00-.831-.824.95.95 0 00-.327.07 17.771 17.771 0 00-6.047 4.764l.06.091a19.7 19.7 0 016.552-3.311" transform="translate(-9.355 -2.081)"/><path id="패스_10604" data-name="패스 10604" class="cls-2" d="M36.264 10.77a.829.829 0 00-.172-1.63.987.987 0 00-.368.075 17.363 17.363 0 00-6.082 4.375l.07.08a18.105 18.105 0 016.552-2.9" transform="translate(-9.762 -3.01)"/><path id="패스_10605" data-name="패스 10605" class="cls-2" d="M36.821 13.883a.792.792 0 00.6-.739.782.782 0 00-.757-.84 1.068 1.068 0 00-.325.056 16.282 16.282 0 00-5.485 3.74l.064.1a15.348 15.348 0 015.9-2.316" transform="translate(-10.162 -4.052)"/></g><g id="그룹_19881" data-name="그룹 19881" transform="translate(36.322 2.729)"><path id="패스_10588" data-name="패스 10588" class="cls-2" d="M105.744 4.07c-4.709 0-8.524 4.617-8.524 10.315s3.815 10.315 8.524 10.315 8.524-4.617 8.524-10.315-3.816-10.315-8.524-10.315m0 18.541c-2.8 0-5.071-3.683-5.071-8.227s2.27-8.226 5.071-8.226 5.071 3.683 5.071 8.226-2.27 8.227-5.071 8.227" transform="translate(-68.342 -4.07)"/><path id="패스_10589" data-name="패스 10589" class="cls-2" d="M80.163 13.337H69.05V11.6h9.65v-2H59.093V6.915H78.7V4.923H55.633V9.5a2.21 2.21 0 002.306 2.1h7.334v1.741H54.16v2.1h26z" transform="translate(-54.16 -4.351)"/><path id="패스_10590" data-name="패스 10590" class="cls-2" d="M56.106 27.026c0 2.781 5.239 5.033 11.7 5.033s11.7-2.253 11.7-5.033-5.239-5.033-11.7-5.033-11.7 2.254-11.7 5.033m19.739-.052c0 1.706-3.6 3.091-8.036 3.091s-8.039-1.385-8.039-3.091 3.6-3.091 8.038-3.091 8.036 1.385 8.036 3.091" transform="translate(-54.801 -9.973)"/><path id="패스_10591" data-name="패스 10591" class="cls-2" d="M214.825 13.09h3.559V11.1h-3.559V8.9h3.559v-2h-3.559V4.458h-3.461V17.04h3.461z" transform="translate(-105.936 -4.198)"/><path id="사각형_24912" data-name="사각형 24912" class="cls-2" transform="translate(78.838 .26)" d="M0 0h3.355v20.971H0z"/><path id="패스_10592" data-name="패스 10592" class="cls-2" d="M165.54 25.428V4.457h-3.188v6.869h-3.76v2.516h3.76v11.586z" transform="translate(-88.555 -4.197)"/><path id="패스_10593" data-name="패스 10593" class="cls-2" d="M190.057 4.085c-4.761 0-8.62 2.762-8.62 6.168s3.859 6.167 8.62 6.167 8.621-2.761 8.621-6.167-3.859-6.168-8.621-6.168m-.006 10.351c-2.856 0-5.173-1.88-5.173-4.2s2.316-4.2 5.173-4.2 5.174 1.879 5.174 4.2-2.316 4.2-5.174 4.2" transform="translate(-96.079 -4.075)"/><path id="패스_10594" data-name="패스 10594" class="cls-2" d="M185.262 26.876h17.51v5.238h3.459v-7.335h-20.969z" transform="translate(-97.339 -10.89)"/><path id="패스_10595" data-name="패스 10595" class="cls-2" d="M147.692 18.332a16.884 16.884 0 005.782 4.555l1.133-1.976a11.582 11.582 0 01-5-5.582 13.507 13.507 0 001.347-5.821l.006-2.58a1.836 1.836 0 00-1.834-1.835h-7.605v2.1h5.869v2.315c0 5.025-2.628 9.884-7.156 11.71l.951 1.707a15.635 15.635 0 006.5-4.593" transform="translate(-82.509 -4.407)"/><path id="패스_10587" data-name="패스 10587" class="cls-2" d="M126.861 4.458v20.971h3.461V13.843h3.589v-2.516h-3.589V4.458z" transform="translate(-78.104 -4.198)"/></g></g></g></svg>