<?xml version="1.0" encoding="utf-8"?>
<!-- Generator: Adobe Illustrator 28.2.0, SVG Export Plug-In . SVG Version: 6.00 Build 0)  -->
<svg version="1.1" id="Layer_1" xmlns="http://www.w3.org/2000/svg" xmlns:xlink="http://www.w3.org/1999/xlink" x="0px" y="0px"
	 viewBox="0 0 352 176" style="enable-background:new 0 0 352 176;" xml:space="preserve">
<style type="text/css">
	.st0{fill:none;}
	.st1{fill:#FFFFFF;}
	.st2{fill-rule:evenodd;clip-rule:evenodd;fill:#FFFFFF;}
	.st3{opacity:0.7;}
</style>
<g>
	<rect class="st0" width="352" height="176"/>
	<g>
		<path id="XMLID_00000034804472737511346690000007731439560678954880_" class="st1" d="M214.7,64.8h-6.5c-0.4,0-0.7,0.3-0.8,0.7
			l-3,16.2h-3.5l0.1-0.7l3-16.2h-19.8c-0.4,0-0.7,0.3-0.8,0.7l-1.2,6.7c-0.1,0.5,0.3,1,0.8,1h11.3l-1.4,7.8l-0.1,0.7h-9.2
			c-0.4,0-0.7,0.3-0.8,0.7l-1.2,6.7c-0.1,0.5,0.3,1,0.8,1h8.9l-0.6,3.2c-0.9,4.8-3.8,9.6-8.4,9.6h-5c-0.4,0-0.7,0.3-0.8,0.7
			l-1.2,6.7c-0.1,0.5,0.3,1,0.8,1h4.7c8.6,0,16.2-7.6,18.1-18l0.6-3.2h3.5l-3.6,19.7c-0.1,0.5,0.3,1,0.8,1h6.5
			c0.4,0,0.7-0.3,0.8-0.7l8.2-44.3C215.6,65.3,215.2,64.8,214.7,64.8z"/>
		<path id="XMLID_00000021815009090131004560000009503161339739282596_" class="st1" d="M271.8,64.8h-6.5c-0.4,0-0.7,0.3-0.8,0.7
			l-3,16.2H254l0.6-3.3c1.4-7.6-3.5-13.8-10.9-13.8c-7.4,0-14.5,6.2-15.9,13.8l-3.5,18.9c-1.4,7.6,3.5,13.8,10.9,13.8
			c7.4,0,14.5-6.2,15.9-13.8l1.3-7.2h7.5l-3.6,19.7c-0.1,0.5,0.3,1,0.8,1h6.5c0.4,0,0.7-0.3,0.8-0.7l8.2-44.3
			C272.7,65.3,272.3,64.8,271.8,64.8z M246.5,78.5L243,97.3c-0.5,3-3.3,5.4-6.2,5.4c-2.9,0-4.8-2.4-4.2-5.4l3.5-18.9
			c0.5-3,3.3-5.4,6.2-5.4C245.1,73.1,247,75.5,246.5,78.5z"/>
		<path id="XMLID_00000084525125855782758460000003204827371141331607_" class="st1" d="M225.3,64.8h-6.5c-0.4,0-0.7,0.3-0.8,0.7
			l-8.2,44.3c-0.1,0.5,0.3,1,0.8,1h6.5c0.4,0,0.7-0.3,0.8-0.7l8.2-44.3C226.2,65.3,225.8,64.8,225.3,64.8z"/>
		<g id="XMLID_00000069396792929200475010000008045746319220128190_">
			<path id="XMLID_00000153706969482819168470000009386478719466384525_" class="st1" d="M127,63.5H96.7c-4,0-7.8,3.3-8.6,7.5
				l-3.7,20c-0.1,0.5,0.3,1,0.8,1h37.9c0.4,0,0.7-0.3,0.8-0.7l4.7-25.8C128.8,64.5,128.1,63.5,127,63.5z M117.2,83.6H93.9l2.2-11.7
				h23.2L117.2,83.6z"/>
			<path id="XMLID_00000168816480089890274000000008688500658816085412_" class="st1" d="M122.9,102h-16.5l1.1-6
				c0.1-0.5-0.3-1-0.8-1h-6.5c-0.4,0-0.7,0.3-0.8,0.7l-1.2,6.3H81.5c-0.4,0-0.7,0.3-0.8,0.7l-1.2,6.7c-0.1,0.5,0.3,1,0.8,1h41.5
				c0.4,0,0.7-0.3,0.8-0.7l1.2-6.7C123.8,102.5,123.4,102,122.9,102z"/>
			<path id="XMLID_00000100359277702737670780000017830770709543479986_" class="st1" d="M163.7,92.1H140c-5.2,0-10.2,4.3-11.2,9.7
				l-0.2,1.1c-1,5.3,2.4,9.7,7.6,9.7H160c5.2,0,10.2-4.3,11.2-9.7l0.2-1.1C172.3,96.4,168.9,92.1,163.7,92.1z M163,102.8
				c-0.1,0.7-0.8,1.3-1.4,1.3h-23.7c-0.7,0-1.1-0.6-1-1.3l0.2-1.1c0.1-0.7,0.8-1.3,1.4-1.3h23.7c0.7,0,1.1,0.6,1,1.3L163,102.8z"/>
			<path id="XMLID_00000020368113673907650210000013527392982899041213_" class="st1" d="M177.9,63.9h-6.5c-0.4,0-0.7,0.3-0.8,0.7
				l-1.4,7.6c-9.8,5.5-21.5,7.5-28.2,8.2c-1,0-0.8-0.3-0.8-0.3l0.3-1.8l2.5-13.4c0.1-0.5-0.3-1-0.8-1h-6.5c-0.4,0-0.7,0.3-0.8,0.7
				l-4,21.9v0c0,0,0,0.1,0,0.1l-0.2,1.1l0,0c-0.3,1.7-0.3,2,0.3,2c0,0,11.4-0.7,22.1-2.9c4.6-0.9,9-2.4,13.1-4.6
				c3.5-1.9,5.6-3.6,7.4-5.4c0.7-0.7-3.7,5.8-6.9,8.9l-0.5,3c-0.1,0.5,0.3,1,0.8,1h6.5c0.4,0,0.7-0.3,0.8-0.7l4.4-24.1
				C178.8,64.3,178.4,63.9,177.9,63.9z"/>
		</g>
	</g>
</g>
</svg>
