<?xml version="1.0" encoding="utf-8"?>
<!-- Generator: Adobe Illustrator 25.4.6, SVG Export Plug-In . SVG Version: 6.00 Build 0)  -->
<svg version="1.1" id="Layer_1" xmlns="http://www.w3.org/2000/svg" xmlns:xlink="http://www.w3.org/1999/xlink" x="0px" y="0px"
	 viewBox="0 0 352 176" style="enable-background:new 0 0 352 176;" xml:space="preserve">
<style type="text/css">
	.st0{fill:none;}
	.st1{fill:#FFFFFF;}
</style>
<g>
	<rect class="st0" width="352" height="176"/>
	<g>
		<rect x="121.6" y="102.7" class="st1" width="47.6" height="4.4"/>
		<path class="st1" d="M176.9,102.4c3.3-1.6,6.3-3.6,9.1-5.8c2.8-2.2,5.2-4.7,7.2-7.4c2-2.7,3.6-5.7,4.8-8.9c1.2-3.2,1.9-6.7,2-10.3
			c0.1-1.4-0.2-2.5-0.9-3.2c-0.7-0.7-1.9-1-3.6-1h-20.3v4.4h17.2c0.8,0,1.4,0.1,1.7,0.4c0.3,0.3,0.5,0.8,0.4,1.6
			c-0.2,2.6-0.8,5.1-1.8,7.6l-0.1,0.2h-17.9v4.4h15.6l-0.3,0.5c-2,3-4.5,5.8-7.4,8.3c-2.9,2.4-6,4.5-9.3,6l2.7,3.7L176.9,102.4z"/>
		<path class="st1" d="M97.1,91.4l0.3,0c2.3-0.1,4.7-0.2,7.1-0.5c2.4-0.3,4.7-0.6,6.9-1c0.3-0.1,0.8-0.2,1.2-0.3l-0.7-4.1
			c-1.4,0.3-2.9,0.5-4.5,0.7c-1.7,0.2-3.4,0.4-5.1,0.5c-1.7,0.1-3.4,0.2-5.1,0.3c-3.1,0.1-6.1,0.2-8.4,0c-1.1-0.1-2.3-0.2-3.6-0.4
			c-1-0.1-1.6-0.5-2.1-1c-0.4-0.5-0.6-1.3-0.6-2.3V71.5c0-2.8,0.3-4.3,1.1-5.3H76c0.8,1.1,1.1,2.6,1.1,5.3v12.9
			c0,2.3,0.6,3.9,1.7,4.8c1.2,1,3,1.6,5.5,1.9c1.2,0.2,2.3,0.3,3.5,0.3c1.2,0.1,2.3,0.1,3.5,0.1h0.3v11.1H70.6v4.4h47.6v-4.4H97.1
			V91.4z"/>
		<path class="st1" d="M214,67.5c0-2.8,0.3-4.3,1.1-5.3h-7.6c0.8,1.1,1.1,2.6,1.1,5.3v46.3h5.4V84.1l7-0.1v-4.4h-7V67.5z"/>
		<path class="st1" d="M128,92c1.9-0.4,3.7-1,5.4-1.7c1.7-0.7,3.3-1.6,4.8-2.5c1.5-1,2.8-2.1,4-3.3c1.2-1.2,2.1-2.6,2.9-4l0.3-0.5
			l0.3,0.5c0.8,1.4,1.8,2.8,2.9,4c1.2,1.2,2.5,2.4,4,3.3c1.5,1,3.1,1.8,4.8,2.5c1.7,0.7,3.5,1.3,5.4,1.7c0.2,0,0.6,0.1,0.8,0.1
			l1.7-4.1c-2.1-0.5-4.2-1.1-6.2-1.9c-2.1-0.9-4-2.1-5.6-3.5c-1.6-1.4-2.9-3.1-3.9-5.1c-1-2-1.5-4.2-1.5-6.8c0-2.5,0.2-4.1,1-5.3
			h-7.6c0.7,0.9,1,2.1,1,4.3v1c0,2.5-0.5,4.8-1.5,6.8c-1,2-2.3,3.7-3.9,5.1c-1.6,1.4-3.5,2.6-5.6,3.5c-2,0.8-4,1.5-6.2,1.9l1.7,4.1
			C127.4,92.1,127.8,92.1,128,92"/>
		<path class="st1" d="M265,67.5c0-2.8,0.3-4.3,1.1-5.3h-7.6c0.8,1.1,1.1,2.6,1.1,5.3v29.8l-0.1,0c-1.4,0.3-2.8,0.5-4.3,0.7
			c-1.6,0.2-3.2,0.4-4.8,0.5c-1.6,0.1-3.2,0.2-4.8,0.3c-3,0.1-5.8,0.1-7.9,0c-1-0.1-1.8-0.2-3.1-0.4c-0.9-0.1-1.6-0.4-1.9-1
			c-0.4-0.5-0.6-1.3-0.6-2.3V66.2h-5.4v30.2l0,0l0,0.2c0.1,2.1,0.6,3.6,1.6,4.5c1.1,1,2.8,1.6,5.2,1.9c1.1,0.1,2.2,0.2,3.3,0.3
			c2.9,0.1,5.9,0.2,8.9,0c2.3-0.1,4.6-0.3,6.8-0.6c2.2-0.3,4.4-0.6,6.4-1c0.1,0,0.3-0.1,0.5-0.1l0.2,0v12.3h5.4V84.1l7-0.1v-4.4h-7
			V67.5z"/>
		<g>
			<path class="st1" d="M276.9,62.2c-2.5,0-4.5,2-4.5,4.5c0,2.5,2,4.5,4.5,4.5c2.5,0,4.5-2,4.5-4.5
				C281.4,64.2,279.4,62.2,276.9,62.2z M276.9,70.4c-2,0-3.7-1.7-3.7-3.7c0-2.1,1.7-3.7,3.7-3.7c2,0,3.7,1.7,3.7,3.7
				C280.6,68.7,278.9,70.4,276.9,70.4z"/>
			<path class="st1" d="M279,65.4c0-1-0.8-1.6-1.9-1.6h-2.3v5.4h1v-2.2h1l1.5,2.2h1.2l-1.6-2.3C278.5,66.7,279,66.1,279,65.4z
				 M277.1,66.2h-1.3v-1.5h1.3c0.3,0,0.9,0.1,0.9,0.7C277.9,66.1,277.3,66.2,277.1,66.2z"/>
		</g>
	</g>
</g>
</svg>
