<?xml version="1.0" encoding="utf-8"?>
<!-- Generator: Adobe Illustrator 28.2.0, SVG Export Plug-In . SVG Version: 6.00 Build 0)  -->
<svg version="1.1" id="Layer_1" xmlns="http://www.w3.org/2000/svg" xmlns:xlink="http://www.w3.org/1999/xlink" x="0px" y="0px"
	 viewBox="0 0 352 176" style="enable-background:new 0 0 352 176;" xml:space="preserve">
<style type="text/css">
	.st0{fill:none;}
	.st1{fill:#FFFFFF;}
	.st2{fill-rule:evenodd;clip-rule:evenodd;fill:#FFFFFF;}
	.st3{opacity:0.7;}
</style>
<g>
	<rect class="st0" width="352" height="176"/>
	<g>
		<g>
			<path class="st1" d="M252,82.5c0,3.3,2.4,6,6.1,6c3.7,0,6.1-2.7,6.1-6c0-3.3-2.4-6-6.1-6C254.4,76.5,252,79.2,252,82.5z"/>
			<path class="st1" d="M248.6,89.9v-6.6c0-6.7,5.1-9.9,9.5-9.9c4.4,0,9.6,3.3,9.6,9.9l-0.1,6.6c0,1.5,0.9,2.4,2.6,2.4h10v-8.8
				c0-14.1-11.1-21.3-22.1-21.3c-11.1,0-22.1,7.2-22.1,21.3v8.8h10.1C247.6,92.3,248.6,91.4,248.6,89.9z"/>
			<g>
				<path class="st1" d="M230,71.8h-4.5v-6.1c0-2-1.3-3.5-4-3.5h-5.3c-2.6,0-4,1.6-4,3.5v26.6h13.2v-9.4h4.5c2,0,3.5-1.3,3.5-4v-3.3
					C233.5,73,232,71.8,230,71.8z"/>
				<path class="st1" d="M221.5,95.3h-36.6c-2.1,0-3.5,1.2-3.5,3.8l0,7.1h30.8l0,9.2h13.2V98.8C225.5,96.8,224.1,95.3,221.5,95.3z"
					/>
			</g>
			<path class="st1" d="M116.4,76.4h-5.3c-2.6,0-4,1.6-4,3.5v26.3h13.2V79.9C120.3,78,119,76.4,116.4,76.4z"/>
			<path class="st1" d="M156.5,89.8c-4.6,1.3-10.3,2.1-13.4,2.1c-1.4,0-2.5-0.3-3.1-1c-0.6-0.6-0.8-1.5-0.7-2.7l0-22
				c0-1.9-1.5-3.4-3.4-3.4h-6.4c-1.9,0-3.4,1.5-3.4,3.4l0,25.7c0,7.7,4.7,11.6,13.9,11.6c4.8,0,10.9-0.8,16.5-2.2V89.8z"/>
			<path class="st1" d="M70.9,68.8v34.5h32.3V68.8c0-3.4-2.7-6.1-6.1-6.1H76.9C73.6,62.8,70.9,65.5,70.9,68.8z M92.4,92.7H81.6V75.1
				c0-0.9,0.7-1.7,1.7-1.7h7.5c0.9,0,1.7,0.7,1.7,1.7V92.7z"/>
			<path class="st1" d="M106.7,67.5c0,3.8,2.8,7,7.1,7c4.3,0,7.1-3.1,7.1-7c0-3.8-2.8-7-7.1-7C109.5,60.5,106.7,63.6,106.7,67.5z"/>
			<path class="st1" d="M202.9,62.8H185c-3.4,0-6.1,2.7-6.1,6.1v23.5h30V68.8C208.9,65.5,206.2,62.8,202.9,62.8z M199.4,78.7
				L199.4,78.7c-1,1.9-3.1,3.1-5.5,3.1c-2.5,0-4.6-1.3-5.5-3.1h0c0,0-1-1.7-0.5-4c0,0,2.2,1,6,1c3.9,0,6-1,6-1
				C200.4,77,199.4,78.7,199.4,78.7z"/>
		</g>
		<path class="st1" d="M168.9,62.2h-5.3c-2.6,0-4,1.6-4,3.5v40.6h13.2V65.7C172.8,63.7,171.5,62.2,168.9,62.2z"/>
		<path class="st1" d="M277.8,95.3l-39.5,0c-1.9,0-3.4,1.3-3.4,4v7.1l46.3,0v-7.1C281.1,96.7,279.7,95.3,277.8,95.3z"/>
	</g>
</g>
</svg>
