<?xml version="1.0" encoding="utf-8"?>
<!-- Generator: Adobe Illustrator 28.2.0, SVG Export Plug-In . SVG Version: 6.00 Build 0)  -->
<svg version="1.1" id="Layer_1" xmlns="http://www.w3.org/2000/svg" xmlns:xlink="http://www.w3.org/1999/xlink" x="0px" y="0px"
	 viewBox="0 0 352 176" style="enable-background:new 0 0 352 176;" xml:space="preserve">
<style type="text/css">
	.st0{fill:none;}
	.st1{fill:#FFFFFF;}
	.st2{fill-rule:evenodd;clip-rule:evenodd;fill:#FFFFFF;}
	.st3{opacity:0.7;}
</style>
<g>
	<g>
		<path class="st1" d="M98.2,61.3c-0.7,0.5-1,1.5-1,3.1v18.3h-6V62.5l0,0h-4h-4.3v3.8v0.1v15.1h-7V69.8v-7.3h-4.1h-4.2v7.3l0,0v31.9
			c0,2.5,0.5,4.3,1.7,5.5c1,1.1,2.7,1.8,5.1,1.8h15.1c0.6,0,1-0.2,1.4-0.7c0.4-0.4,0.5-0.9,0.5-1.4V89.3h6v16.9v9.8h3.8h4.8v-5.6
			c0-0.2,0-0.3,0-0.5V60.6h-4.2C100,60.6,99,60.8,98.2,61.3 M78.1,102.3c-0.8,0-1.3-0.2-1.8-0.6c-0.4-0.4-0.6-0.9-0.6-1.5V87.8h7
			l0.1,14.4H78.1z"/>
		<path class="st1" d="M118,60h-4.3c-1.4,0-2.5,0.2-3.2,0.7c-0.7,0.5-1,1.5-1,3v0.2l0,0v52l0,0l0,0h8.5l0,0h0.1V60L118,60L118,60z"
			/>
		<path class="st1" d="M135.3,101.7c-0.5-0.4-0.7-0.9-0.7-1.5V66.6l0,0v-4h-9v7.3v31.9c0,2.5,0.5,4.3,1.5,5.5c1,1.1,2.8,1.8,5.2,1.8
			h23.1c0.6,0,1-0.2,1.4-0.7c0.3-0.4,0.5-0.9,0.5-1.4v-4.3H137C136.2,102.3,135.6,102.1,135.3,101.7"/>
		<path class="st1" d="M170.6,60h-4.7c-1.4,0-2.5,0.2-3.2,0.7c-0.7,0.5-1,1.5-1,3V108l0,0v7.8h9v-5c0-0.2,0-0.4,0-0.6V85.5h6
			c0.6,0,1.1-0.2,1.5-0.7c0.3-0.4,0.5-0.9,0.5-1.5v-4.7h-7.9L170.6,60L170.6,60z"/>
		<path class="st1" d="M219.6,60.8c-0.7,0.5-1,1.5-1,3v51.6l0,0v0.4h9V111c0-0.2,0-0.5,0-0.8V60h-4.7
			C221.4,60,220.2,60.3,219.6,60.8"/>
		<path class="st1" d="M204.8,94.5c-1.1-2-2-3.9-2.4-6.1c-0.5-2.2-0.7-4.3-0.7-6.6v-9.2h11v-6.4h-11v-6.1h-4.5h-4.5v6.1h-11v6.4h11
			v9.2c0,2.3-0.2,4.4-0.7,6.6c-0.5,2.2-1.3,4.1-2.4,6.1c-1.1,1.9-2.5,3.6-4.2,5.3c-1.8,1.5-3.8,3-6.3,4.1l1.3,2.2
			c0.6,0.9,1.8,2,2.7,2.1c1.2,0.1,1.8-0.1,3-0.7c2.2-1.1,4.2-2.7,6.3-4.6c2-2,3.6-4.1,5.1-6.7c1.4,2.5,3.2,4.7,5.1,6.7
			c2.1,2.1,4.1,3.6,6.3,4.6c1.2,0.6,1.8,0.8,3,0.7c0.9-0.1,2.1-1,2.7-2.1l1.3-2.2c-2.5-1.1-4.5-2.5-6.3-4.1
			C207.2,98.3,205.8,96.5,204.8,94.5"/>
		<path class="st1" d="M246.9,75c0.8-1.5,2.5-3.3,3.9-4.2c0.6-0.4,1.3-0.7,2.1-1c1.9-0.6,3.6-1,5.6-1c0.6,0,1.2,0,1.9,0.1
			c1.8,0.1,1.8,0.3,3.5-0.1c0.9-0.2,1.9-0.7,2.4-1.5c0.4-0.6,0.5-1.4,0.4-2.3c-0.1-0.5-0.1-1.1-0.5-1.5c-0.3-0.3-0.9-0.5-1.3-0.7
			c-0.4-0.2-0.7-0.3-1.1-0.4c-0.9-0.3-2-0.4-3-0.5c-0.7-0.1-1.3-0.1-2.1-0.1c-3.1,0-5.9,0.4-8.5,1.2c-2.7,0.9-4.8,2.1-6.7,3.5
			c-1.9,1.5-3.4,3.3-4.4,5.4c-1.1,2.2-1.7,4.4-1.7,6.9c0,2.2,0.4,4.2,1.2,6.1c0.8,1.9,2.1,3.6,3.5,5c1.3,1.3,2.6,2.2,4.2,2.9
			c-0.1-0.2-0.3-0.8-0.3-1c-0.9-4.4-1.9-9-0.4-13.4C245.8,77.1,246.3,76,246.9,75"/>
		<path class="st1" d="M263.2,105.7V95.3c2.4-0.4,4.6-1,6.7-2.1c2-0.9,3.6-2.2,5.2-3.6c1.3-1.3,2.5-3,3.3-5c0.7-1.8,1.2-3.8,1.2-6
			c0-2.5-0.6-4.7-1.5-6.9c-1-2.1-2.5-3.8-4.4-5.4c-1-0.8-2.2-1.4-3.4-2.1c0.3,0.8,0.4,3.7,0.5,4.5c0.1,1.7,0.5,7.2-0.4,11.4
			c-0.1,0.7-0.3,1.3-0.6,2.1c0,0.1-0.1,0.2-0.1,0.2l0,0l0,0c-2,4-6.5,5.4-10.7,5.6c-1.3,0-1.9,0-3.2,0c-2.8,0-6,0.7-5.7,4.3
			c0,0.3,0.1,0.7,0.2,1c0.1,0.2,0.1,0.4,0.3,0.7c1.5,0.5,2,0.8,3.8,1v10.3h-16.5H234v2.1v4.7h3.9h44.6c0.5,0,0.9-0.2,1.4-0.6
			c0.4-0.4,0.6-0.9,0.6-1.5v-4.6h-21.2L263.2,105.7L263.2,105.7z"/>
	</g>
	<rect x="0" class="st0" width="352" height="176"/>
</g>
</svg>
