<?xml version="1.0" encoding="UTF-8"?>
<svg id="Layer_2" data-name="Layer 2" xmlns="http://www.w3.org/2000/svg" viewBox="0 0 352 176">
  <defs>
    <style>
      .cls-1 {
        fill: none;
      }

      .cls-1, .cls-2 {
        stroke-width: 0px;
      }

      .cls-2 {
        fill: #fff;
      }
    </style>
  </defs>
  <g id="Layer_1-2" data-name="Layer 1">
    <g>
      <rect class="cls-1" width="352" height="176"/>
      <g>
        <path class="cls-2" d="M233.52,110.71v-10.08h-10.98v10.08c0,5.49,5.21,9.79,11.85,9.79h29.55l1.15-6.86h-30.25c-.46-.32-1.32-1.32-1.32-2.93Z"/>
        <path class="cls-2" d="M221.96,95.01h10.08c9.34,0,15.98-.77,20.61-1.74v7.68h10.98v-45.45h-10.98v30.34c-2.5.85-8.52,2.31-20.61,2.31h-9.63c-.46-.32-1.32-1.32-1.32-2.93,0-1.12.06-2.68.21-4.27h22.61l.58-3.02c.52-2.66.71-5.84.71-7.93,0-5.4-5.14-9.62-11.68-9.62h-21.63l-1.14,6.86h22.27c.44.32,1.21,1.27,1.21,2.76,0,1.07-.07,2.57-.21,4.08h-22.6l-.6,3.02c-.53,2.73-.72,5.99-.72,8.12.02,5.49,5.23,9.79,11.87,9.79Z"/>
        <polygon class="cls-2" points="141.43 109.1 130.46 109.1 130.46 55.5 141.43 55.5 141.43 74 152.51 74 151.94 80.87 141.43 80.87 141.43 109.1"/>
        <path class="cls-2" d="M111.37,60.37h-23.32l-1.14,6.86h23.96c.43.32,1.21,1.27,1.21,2.76,0,12.21-2.92,23.49-24.03,23.49l-1.14,6.87c35,0,36.15-22.85,36.15-30.36,0-5.4-5.14-9.62-11.68-9.62Z"/>
        <path class="cls-2" d="M199.64,69.99c0-5.4-5.12-9.62-11.68-9.62h-30.79l-1.14,6.86h31.42c.44.32,1.21,1.27,1.21,2.76,0,13.93-3.02,21.99-6.05,26.58h-30.8l-1.14,6.86h55.04l1.14-6.86h-12.55c3.55-6.68,5.34-15.59,5.34-26.58Z"/>
      </g>
    </g>
  </g>
</svg>