<?xml version="1.0" encoding="utf-8"?>
<!-- Generator: Adobe Illustrator 28.2.0, SVG Export Plug-In . SVG Version: 6.00 Build 0)  -->
<svg version="1.1" id="Layer_1" xmlns="http://www.w3.org/2000/svg" xmlns:xlink="http://www.w3.org/1999/xlink" x="0px" y="0px"
	 viewBox="0 0 352 176" style="enable-background:new 0 0 352 176;" xml:space="preserve">
<style type="text/css">
	.st0{fill:none;}
	.st1{fill:#FFFFFF;}
	.st2{fill-rule:evenodd;clip-rule:evenodd;fill:#FFFFFF;}
	.st3{opacity:0.7;}
</style>
<g>
	<rect class="st0" width="352" height="176"/>
	<g>
		<path class="st1" d="M179.2,69h-31.7c-0.5,0-0.9,0.4-0.9,0.9V75c0,0.5,0.4,0.9,0.9,0.9h12.2v30.3c0,0.4,0.4,0.8,0.9,0.8h5.7
			c0.5,0,0.9-0.4,0.9-0.8V75.9h12.2c0.5,0,0.9-0.4,0.9-0.9v-5.1C180,69.4,179.6,69,179.2,69z"/>
		<path class="st1" d="M197.1,69h-5.7c-0.5,0-0.9,0.4-0.9,0.9v36.2c0,0.5,0.4,0.9,0.9,0.9h5.7c0.5,0,0.9-0.4,0.9-0.9V69.9
			C197.9,69.4,197.6,69,197.1,69z"/>
		<path class="st1" d="M287.9,69h-5.5c-0.5,0-0.8,0.4-0.8,0.9v24.6c-5.7-8.2-11.5-16.5-17.4-24.8c-0.3-0.4-0.7-0.6-1.2-0.6l-6.2,0
			c-0.5,0-0.8,0.4-0.8,0.9v36.2c0,0.5,0.4,0.9,0.8,0.9h5.5c0.5,0,0.8-0.4,0.8-0.9V81.5c5.7,8.2,11.5,16.5,17.4,24.8
			c0.3,0.4,0.7,0.6,1.2,0.6l6.2,0c0.5,0,0.8-0.4,0.8-0.9V69.9C288.8,69.4,288.4,69,287.9,69z"/>
		<path class="st1" d="M100.3,84.6H85.9V69h-6.5c-0.5,0-0.9,0.4-0.9,0.9v14.7H64.1c-0.5,0-0.9,0.4-0.9,0.9v5.1
			c0,0.5,0.4,0.9,0.9,0.9h14.4v14.7c0,0.5,0.4,0.9,0.9,0.9H85c0.5,0,0.9-0.4,0.9-0.9V91.4h14.4c0.5,0,0.9-0.4,0.9-0.9v-5.1
			C101.1,85,100.7,84.6,100.3,84.6z"/>
		<path class="st1" d="M107.5,69H88.9v6.9h18.7c0.5,0,0.9-0.4,0.9-0.9v-5.1C108.4,69.4,108,69,107.5,69z"/>
		<path class="st1" d="M130.8,69.9c-0.1-0.2-0.1-0.3-0.3-0.5c-0.2-0.2-0.6-0.3-1-0.3h-4.1c-0.4,0-0.8,0.1-1,0.3
			c-0.2,0.2-0.2,0.3-0.3,0.5l-14.3,35.7c0,0-0.1,0.3-0.1,0.6c0.1,0.5,0.4,0.8,1.1,0.8h5c0.4,0,0.7-0.1,0.9-0.2
			c0.2-0.2,0.4-0.4,0.5-0.7l2.2-6h15.9l2.2,6c0.1,0.3,0.3,0.6,0.5,0.7c0.2,0.2,0.5,0.2,0.9,0.2h5c0.7,0,1.1-0.3,1.1-0.8
			c0-0.3-0.1-0.6-0.1-0.6L130.8,69.9z M122,93.4l5.5-14.6l5.5,14.6H122z"/>
		<path class="st1" d="M227.2,68.5c-11.5,0-18.6,7.5-18.6,19.6c0,11.6,7.5,19.4,18.7,19.4c11.1,0,18.2-7.8,18.2-19.9
			C245.4,76.2,238.1,68.5,227.2,68.5z M227.2,100.5c-10.6,0-11.4-9.4-11.4-12.3c0-5.7,2-12.6,11.3-12.6c10.2,0,11,9.2,11,12
			C238.1,91.4,237.1,100.5,227.2,100.5z"/>
	</g>
</g>
</svg>
