<?xml version="1.0" encoding="UTF-8"?>
<svg id="Layer_2" data-name="Layer 2" xmlns="http://www.w3.org/2000/svg" viewBox="0 0 352 176">
  <defs>
    <style>
      .cls-1 {
        fill: none;
      }

      .cls-1, .cls-2 {
        stroke-width: 0px;
      }

      .cls-2 {
        fill: #fff;
      }
    </style>
  </defs>
  <g id="Layer_1-2" data-name="Layer 1">
    <g>
      <rect class="cls-1" width="352" height="176"/>
      <g>
        <path class="cls-2" d="M71.67,92.98h4.12v6.54h0v6.84h-6.34c-1.61,0-2.41-1.01-2.82-1.71-.5-.91-.8-2.01-.8-3.12v-26.96c0-1.11.3-2.21.8-3.12.4-.7,1.21-1.71,2.82-1.71h6.34v7.44h6.64v-14.08h-12.47c-1.61,0-3.02.3-4.33.91-1.31.6-2.52,1.41-3.42,2.41s-1.71,2.21-2.21,3.62c-.5,1.41-.8,2.92-.8,4.53h0v27.06h0c0,1.61.3,3.12.8,4.43.5,1.41,1.31,2.62,2.21,3.62s2.11,1.81,3.42,2.41c1.21.6,2.62.8,4.12.91h.2c4.33,0,8.15-.4,12.37-1.01h.1v-25.65h-10.76v6.64Z"/>
        <path class="cls-2" d="M292,70.14c-.5-1.41-1.31-2.72-2.21-3.72s-2.11-1.81-3.42-2.52c-1.31-.6-2.82-.91-4.33-.91h-12.27v49.3h.1c4.43.7,8.75.6,13.18.6h.3c1.51,0,2.92-.4,4.02-1.11,1.21-.7,2.21-1.71,3.02-2.82s1.41-2.41,1.81-3.82.6-2.72.6-4.02v-26.36c0-1.71-.3-3.22-.8-4.63ZM286.16,101.33c0,2.62-2.11,4.83-4.73,4.83h-4.93v-36.32h6.04c1.61.2,2.41,1.01,2.82,1.71.5,1.01.8,2.01.8,3.22v26.56h0Z"/>
        <g>
          <path class="cls-2" d="M111.21,104.15c.3-.5.91-1.51.91-2.72l.91-38.43h-6.74l-1.01,38.63-4.53,3.92h-1.71l-4.53-3.92-1.01-38.63h-6.74l.91,38.43c0,1.21.6,2.21.91,2.72.1.2,6.14,5.94,6.14,5.94.1.1.3.3.4.5,3.22-.3,6.54-.6,10.06-.91,1.71-1.31,5.94-5.33,6.04-5.53Z"/>
          <path class="cls-2" d="M169.96,89.96h-4.12v-6.64h10.76v23.74h-12.68c-1.61,0-3.02-.3-4.33-.91-1.31-.6-2.41-1.41-3.42-2.41-.91-1.01-1.71-2.21-2.21-3.62s-.8-2.92-.8-4.53h0v-20.93c0-1.61.3-3.12.8-4.53.5-1.41,1.31-2.62,2.21-3.62.91-1.01,2.11-1.81,3.42-2.41,1.31-.6,2.82-.91,4.33-.91h12.68v14.08h-6.64v-7.55h-6.44c-1.61,0-2.41,1.01-2.82,1.71-.5.91-.8,2.01-.8,3.12v21.13h0c0,1.11.3,2.21.8,3.12.4.7,1.21,1.71,2.82,1.71h6.44v-10.56Z"/>
          <path class="cls-2" d="M205.58,99.42v-36.42h-6.74v37.42h-10.46v-37.42h-6.64v37.32c0,4.73,3.02,6.54,5.03,6.54,6.94,0,7.04.1,14.29.3,3.72,0,4.53-4.23,4.53-7.75Z"/>
          <path class="cls-2" d="M217.55,97.61h11.37l.4,10.66c2.21.1,4.43.2,6.54.4l-1.11-35.31c0-1.21-.6-2.21-.91-2.72-.1-.2-5.53-5.94-5.53-5.94-.7-.8-1.91-1.61-3.52-1.61h-3.02c-1.61,0-2.82.8-3.52,1.61,0,0-5.43,5.73-5.53,5.94-.3.5-.91,1.51-.91,2.72l-1.61,34.1c2.21.1,4.53.2,6.84.2l.5-10.06ZM218.35,74.07l4.02-4.83h1.71l4.02,4.83.6,17.4h-11.07l.7-17.4Z"/>
          <path class="cls-2" d="M247.23,97.31l5.94-2.41,6.64,15.69c2.31.2,4.63.4,6.94.7l-7.75-18.71,2.62-1.01c1.91-.7,2.92-3.42,2.92-5.33h0v-11.67c0-1.51-.2-3.02-.7-4.43-.4-1.41-1.11-2.62-2.01-3.72-.91-1.01-2.01-1.91-3.42-2.52-1.31-.6-2.92-.91-4.83-.91h-13.18v45.98c2.21.2,4.43.3,6.74.5l.1-12.17h0ZM247.23,69.74h6.44c1.61,0,2.72.5,3.32,1.41.6.91.91,2.01.91,3.42v11.17l-10.66,4.33v-20.32h0Z"/>
          <path class="cls-2" d="M123.79,82.01l4.73,14.19h2.41l4.73-14.19v25.75c2.11-.1,4.12-.2,6.24-.2v-44.47h-6.14l-6.04,19.32-6.04-19.32h-6.14v45.77c2.01-.1,4.12-.2,6.24-.4v-26.46Z"/>
        </g>
      </g>
    </g>
  </g>
</svg>