<?xml version="1.0" encoding="utf-8"?>
<!-- Generator: Adobe Illustrator 28.2.0, SVG Export Plug-In . SVG Version: 6.00 Build 0)  -->
<svg version="1.1" id="Layer_1" xmlns="http://www.w3.org/2000/svg" xmlns:xlink="http://www.w3.org/1999/xlink" x="0px" y="0px"
	 viewBox="0 0 352 176" style="enable-background:new 0 0 352 176;" xml:space="preserve">
<style type="text/css">
	.st0{fill:none;}
	.st1{fill:#FFFFFF;}
	.st2{fill-rule:evenodd;clip-rule:evenodd;fill:#FFFFFF;}
	.st3{opacity:0.7;}
</style>
<g>
	<g>
		<path class="st1" d="M74.9,65.7C61.1,65.7,50,76.9,50,90.6c0,13.7,11.1,24.9,24.9,24.9c13.7,0,24.9-11.1,24.9-24.9
			C99.7,76.9,88.6,65.7,74.9,65.7z M86.8,90.6c0,3-2.4,5.4-5.4,5.4c-3,0-5.4-2.4-5.4-5.4v-13c0-3,2.4-5.4,5.4-5.4
			c3,0,5.4,2.4,5.4,5.4V90.6z"/>
		<path class="st1" d="M159.1,72.2h-3.9v4.4h3.9v14c0,1.2,0.2,2.2,0.6,2.9c0.4,0.7,0.9,1.3,1.6,1.7c0.7,0.4,1.5,0.7,2.4,0.8
			c0.9,0.1,1.8,0.2,2.8,0.2c0.6,0,1.3,0,2,0c0.7,0,1.3-0.1,1.8-0.2v-5.1c-0.3,0.1-0.6,0.1-1,0.1c-0.3,0-0.7,0-1,0
			c-1.1,0-1.8-0.2-2.2-0.6c-0.4-0.4-0.5-1.1-0.5-2.2V76.6h4.7v-4.4h-4.7v-6.5l-6.4,2.5V72.2z"/>
		<path class="st1" d="M134,79c-0.6-1.5-1.4-2.9-2.5-4c-1.1-1.1-2.3-1.9-3.8-2.5c-1.5-0.6-3.2-0.9-5-0.9c-1.8,0-3.5,0.3-5,0.9
			c-1.5,0.6-2.8,1.4-3.8,2.5c-1.1,1.1-1.9,2.4-2.5,4c-0.6,1.5-0.9,3.3-0.9,5.2c0,1.9,0.3,3.6,0.9,5.1c0.6,1.5,1.4,2.8,2.5,3.9
			c1.1,1.1,2.3,1.9,3.8,2.5c1.5,0.6,3.1,0.9,5,0.9c1.8,0,3.5-0.3,5-0.9c1.5-0.6,2.8-1.4,3.8-2.5c1.1-1.1,1.9-2.4,2.5-3.9
			c0.6-1.5,0.9-3.2,0.9-5.1C134.8,82.2,134.6,80.5,134,79z M128.1,86.9c-0.2,0.9-0.5,1.7-0.9,2.4c-0.4,0.7-1,1.3-1.8,1.7
			c-0.7,0.4-1.7,0.6-2.7,0.6c-1.1,0-2-0.2-2.7-0.6c-0.7-0.4-1.3-1-1.7-1.7c-0.4-0.7-0.7-1.5-0.9-2.4c-0.2-0.9-0.3-1.8-0.3-2.8
			c0-0.9,0.1-1.9,0.3-2.8c0.2-0.9,0.5-1.7,0.9-2.4c0.4-0.7,1-1.3,1.7-1.7c0.7-0.4,1.6-0.7,2.7-0.7c1.1,0,2,0.2,2.7,0.7
			c0.7,0.4,1.3,1,1.8,1.7c0.4,0.7,0.7,1.5,0.9,2.4c0.2,0.9,0.3,1.9,0.3,2.8C128.4,85.1,128.3,86,128.1,86.9z"/>
		<path class="st1" d="M152.7,77.7c0.4,0,0.8,0.1,1.1,0.2v-6.1c-0.5-0.2-1-0.2-1.4-0.2c-0.8,0-1.6,0.1-2.4,0.4
			c-0.8,0.2-1.5,0.6-2.1,1c-0.7,0.4-1.3,1-1.8,1.6c-0.5,0.6-0.9,1.3-1.2,2h-0.1v-4.4h-6.1V96h6.4V85.3c0-1.1,0.1-2.1,0.3-3
			c0.2-0.9,0.6-1.7,1.1-2.4c0.5-0.7,1.2-1.2,2-1.6c0.8-0.4,1.8-0.6,3-0.6C151.8,77.7,152.2,77.7,152.7,77.7"/>
		<path class="st1" d="M189,96h6.4V81.4c0-1.5-0.1-2.8-0.4-4c-0.3-1.2-0.7-2.2-1.3-3.1c-0.6-0.8-1.5-1.5-2.6-2
			c-1.1-0.5-2.5-0.7-4.2-0.7c-1.2,0-2.5,0.3-3.7,0.9c-1.3,0.6-2.3,1.6-3.1,3h-0.1v-15l-6.4,2.5v33h6.4V83.5c0-2.4,0.4-4.2,1.2-5.2
			c0.8-1.1,2.1-1.6,3.8-1.6c1.5,0,2.6,0.5,3.2,1.4c0.6,1,0.9,2.4,0.9,4.4V96z"/>
		<path class="st1" d="M222.7,79c-0.6-1.5-1.4-2.9-2.5-4c-1.1-1.1-2.3-1.9-3.8-2.5c-1.5-0.6-3.2-0.9-5-0.9c-1.8,0-3.5,0.3-5,0.9
			c-1.5,0.6-2.8,1.4-3.8,2.5c-1.1,1.1-1.9,2.4-2.5,4c-0.6,1.5-0.9,3.3-0.9,5.2c0,1.9,0.3,3.6,0.9,5.1c0.6,1.5,1.4,2.8,2.5,3.9
			c1.1,1.1,2.3,1.9,3.8,2.5c1.5,0.6,3.1,0.9,5,0.9c1.8,0,3.5-0.3,5-0.9c1.5-0.6,2.8-1.4,3.8-2.5c1.1-1.1,1.9-2.4,2.5-3.9
			c0.6-1.5,0.9-3.2,0.9-5.1C223.6,82.2,223.3,80.5,222.7,79z M216.9,86.9c-0.2,0.9-0.5,1.7-0.9,2.4c-0.4,0.7-1,1.3-1.8,1.7
			c-0.7,0.4-1.7,0.6-2.7,0.6c-1.1,0-2-0.2-2.7-0.6c-0.7-0.4-1.3-1-1.7-1.7c-0.4-0.7-0.7-1.5-0.9-2.4c-0.2-0.9-0.3-1.8-0.3-2.8
			c0-0.9,0.1-1.9,0.3-2.8c0.2-0.9,0.5-1.7,0.9-2.4c0.4-0.7,1-1.3,1.7-1.7c0.7-0.4,1.6-0.7,2.7-0.7c1.1,0,2,0.2,2.7,0.7
			c0.7,0.4,1.3,1,1.8,1.7c0.4,0.7,0.7,1.5,0.9,2.4c0.2,0.9,0.3,1.9,0.3,2.8C217.1,85.1,217.1,86,216.9,86.9z"/>
		<path class="st1" d="M257,96h6.4V80.1c0-1.5-0.2-2.8-0.6-3.9c-0.4-1.1-1-2-1.8-2.6c-0.8-0.7-1.7-1.2-2.7-1.5
			c-1.1-0.3-2.2-0.5-3.4-0.5c-1.6,0-3,0.4-4.2,1.2c-1.2,0.8-2.1,1.7-2.8,2.8c-0.6-1.5-1.6-2.5-2.8-3.1c-1.2-0.6-2.6-0.9-4.1-0.9
			c-1.5,0-2.9,0.3-4.1,1c-1.2,0.7-2.2,1.6-3.1,2.8h-0.1v-3.2h-6.1V96h6.4V82.2c0-1.2,0.2-2.1,0.5-2.8c0.3-0.7,0.7-1.3,1.2-1.7
			c0.5-0.4,1-0.6,1.5-0.8c0.5-0.1,0.9-0.2,1.2-0.2c1,0,1.8,0.2,2.3,0.5c0.5,0.4,0.9,0.8,1.1,1.4c0.2,0.6,0.4,1.2,0.4,1.9
			c0,0.7,0,1.4,0,2.1V96h6.4V82.8c0-0.7,0.1-1.5,0.2-2.2c0.1-0.7,0.3-1.4,0.6-1.9c0.3-0.6,0.8-1,1.3-1.4c0.6-0.4,1.3-0.5,2.2-0.5
			c0.9,0,1.6,0.2,2.2,0.5c0.5,0.3,0.9,0.7,1.2,1.2c0.3,0.5,0.4,1.1,0.5,1.8c0.1,0.7,0.1,1.5,0.1,2.3V96z"/>
		<path class="st1" d="M290.8,79c-0.6-1.5-1.4-2.9-2.5-4c-1.1-1.1-2.3-1.9-3.8-2.5c-1.5-0.6-3.2-0.9-5-0.9c-1.8,0-3.5,0.3-5,0.9
			c-1.5,0.6-2.8,1.4-3.8,2.5c-1.1,1.1-1.9,2.4-2.5,4c-0.6,1.5-0.9,3.3-0.9,5.2c0,1.9,0.3,3.6,0.9,5.1c0.6,1.5,1.4,2.8,2.5,3.9
			c1.1,1.1,2.3,1.9,3.8,2.5c1.5,0.6,3.1,0.9,5,0.9c1.8,0,3.5-0.3,5-0.9c1.5-0.6,2.8-1.4,3.8-2.5c1.1-1.1,1.9-2.4,2.5-3.9
			c0.6-1.5,0.9-3.2,0.9-5.1C291.7,82.2,291.4,80.5,290.8,79z M285,86.9c-0.2,0.9-0.5,1.7-0.9,2.4c-0.4,0.7-1,1.3-1.8,1.7
			c-0.7,0.4-1.7,0.6-2.7,0.6c-1.1,0-2-0.2-2.7-0.6c-0.7-0.4-1.3-1-1.7-1.7c-0.4-0.7-0.7-1.5-0.9-2.4c-0.2-0.9-0.3-1.8-0.3-2.8
			c0-0.9,0.1-1.9,0.3-2.8c0.2-0.9,0.5-1.7,0.9-2.4c0.4-0.7,1-1.3,1.7-1.7c0.7-0.4,1.6-0.7,2.7-0.7c1.1,0,2,0.2,2.7,0.7
			c0.7,0.4,1.3,1,1.8,1.7c0.4,0.7,0.7,1.5,0.9,2.4c0.2,0.9,0.3,1.9,0.3,2.8C285.2,85.1,285.2,86,285,86.9z"/>
		<rect x="295.6" y="60.5" class="st1" width="6.4" height="35.5"/>
	</g>
	<rect class="st0" width="352" height="176"/>
</g>
</svg>
