<?xml version="1.0" encoding="utf-8"?>
<!-- Generator: Adobe Illustrator 28.2.0, SVG Export Plug-In . SVG Version: 6.00 Build 0)  -->
<svg version="1.1" id="Layer_1" xmlns="http://www.w3.org/2000/svg" xmlns:xlink="http://www.w3.org/1999/xlink" x="0px" y="0px"
	 viewBox="0 0 352 176" style="enable-background:new 0 0 352 176;" xml:space="preserve">
<style type="text/css">
	.st0{fill:none;}
	.st1{fill:#FFFFFF;}
	.st2{fill-rule:evenodd;clip-rule:evenodd;fill:#FFFFFF;}
	.st3{opacity:0.7;}
</style>
<g>
	<path class="st1" d="M94.3,106.3v-3.9H83.1c0,0,0,5.2,0,10.6s6.9,4.8,6.9,4.8h44.1v-9.3H96.5C94.2,108.5,94.3,106.3,94.3,106.3z
		 M133.8,68.2c0-4.7-1.7-6.9-7.1-6.7h-3.8v43.9h11l-0.1-19.6h6V76h-6.1L133.8,68.2z M119.8,90h-5.2V73.9h5.2v-9.5H79v9.5h5.8V90H79
		v9.5h40.8V90z M104.1,90h-8.8V73.9h8.8V90z M255,68.2c0-4.8-1.7-6.9-7.1-6.7h-3.8v44.2H255V68.2z M215.6,106.3v-3.8h-11.1
		c0,0,0,5.1,0,10.5s6.9,4.8,6.9,4.8h43.9v-9.3h-37.5C215.5,108.5,215.6,106.3,215.6,106.3z M140.3,73.9h5.8v29.4h-5.8v9.5h40.8v-9.5
		h-5.2V73.9h5.2v-9.5h-40.8V73.9z M156.6,73.9h8.8v29.3h-8.8V73.9z M265.1,58c-4.3,0-7.9,3.2-7.9,7.8c-0.1,4.5,3.5,7.8,7.9,7.8
		c4.3,0,7.9-3.4,7.9-7.8C273,61.4,269.4,58,265.1,58z M265,72.3c-3.5,0-6.4-2.7-6.4-6.5c0-3.6,2.9-6.5,6.4-6.5s6.4,2.9,6.4,6.5
		C271.3,69.5,268.6,72.3,265,72.3z M268.6,63.8c0-1.8-1-2.6-3.2-2.6H262v8.9h1.4v-3.8h1.6l2.3,3.9h1.6l-2.6-4
		C267.6,66.2,268.6,65.4,268.6,63.8z M263.4,65.3v-2.9h1.8c0.9,0,1.9,0.3,1.9,1.3c0,1.4-1,1.4-2.2,1.4
		C265,65.3,263.4,65.3,263.4,65.3z M211.4,99.9h28.8v-9.5h-28.8v-4.1h18.3h9.5h1V64.3h-39.3v9.5h28.8v3h-28.8v18.1
		c0,0-0.1,4.9,4.7,4.9H211.4z M187.7,61.5H184V118h11l-0.1-49.8C194.9,63.4,193.2,61.4,187.7,61.5z"/>
	<rect class="st0" width="352" height="176"/>
</g>
</svg>
