<?xml version="1.0" encoding="utf-8"?>
<!-- Generator: Adobe Illustrator 28.2.0, SVG Export Plug-In . SVG Version: 6.00 Build 0)  -->
<svg version="1.1" id="Layer_1" xmlns="http://www.w3.org/2000/svg" xmlns:xlink="http://www.w3.org/1999/xlink" x="0px" y="0px"
	 viewBox="0 0 352 176" style="enable-background:new 0 0 352 176;" xml:space="preserve">
<style type="text/css">
	.st0{fill:none;}
	.st1{fill:#FFFFFF;}
	.st2{fill-rule:evenodd;clip-rule:evenodd;fill:#FFFFFF;}
	.st3{opacity:0.7;}
</style>
<g>
	<g>
		<path class="st1" d="M165.3,51.8l2.6,3.3v36.4h5.5V50.5h-7.5C165,50.5,164.8,51.3,165.3,51.8"/>
		<path class="st1" d="M158.5,58.8v11.6h-9.6V75h9.6v16.6h5.5V54.1h-7.5c-0.9,0-1.1,0.8-0.6,1.3L158.5,58.8z"/>
		<path class="st1" d="M150.8,85.5h-22.9V75h16.8v-4.6h-16.8V60h18.3v0h2.4h1.5c0.9,0,1.1-0.8,0.6-1.3l-2.4-3.1h-2h-0.1h-25.5
			c-0.9,0-1.1,0.8-0.6,1.3l2.6,3.3v25.4c0,0.7,0.3,1.5,0.9,2.1l1.7,1.5c0.5,0.5,1.2,0.7,1.8,0.7h23.8V85.5z"/>
		<path class="st1" d="M230.2,57.8c0.2-0.2,0.3-0.4,0.3-0.7c0-0.1,0-0.3-0.1-0.4c-0.1-0.1-0.1-0.2-0.2-0.3c-0.1-0.1-0.3-0.2-0.4-0.3
			c-0.2-0.1-0.4-0.1-0.6-0.1h-1.5v3.4h0.7v-1.2h0.7l0.9,1.2l0,0h0.8l-1-1.3C229.9,58.1,230.1,58,230.2,57.8 M229.1,57.6h-0.8v-1h0.9
			c0.2,0,0.4,0,0.5,0.1c0.1,0.1,0.2,0.2,0.2,0.4c0,0.2-0.1,0.3-0.2,0.4C229.5,57.6,229.3,57.6,229.1,57.6"/>
		<path class="st1" d="M232,56.6c-0.2-0.4-0.4-0.7-0.7-1c-0.3-0.3-0.6-0.5-1-0.7c-0.4-0.2-0.8-0.3-1.3-0.3c-0.5,0-0.9,0.1-1.3,0.3
			c-0.4,0.2-0.7,0.4-1,0.7c-0.3,0.3-0.5,0.6-0.7,1c-0.2,0.4-0.3,0.8-0.3,1.3c0,0.4,0.1,0.9,0.3,1.3c0.2,0.4,0.4,0.7,0.7,1
			c0.3,0.3,0.6,0.5,1,0.7c0.4,0.2,0.8,0.3,1.3,0.3c0.5,0,0.9-0.1,1.3-0.3c0.4-0.2,0.8-0.4,1-0.7c0.3-0.3,0.5-0.6,0.7-1
			c0.2-0.4,0.3-0.8,0.3-1.3C232.2,57.4,232.2,57,232,56.6 M231.6,59c-0.1,0.3-0.3,0.6-0.6,0.9c-0.3,0.3-0.6,0.5-0.9,0.6
			c-0.3,0.1-0.7,0.2-1.1,0.2c-0.4,0-0.8-0.1-1.1-0.2c-0.3-0.1-0.6-0.3-0.9-0.6c-0.2-0.3-0.4-0.6-0.6-0.9c-0.1-0.3-0.2-0.7-0.2-1.1
			c0-0.4,0.1-0.8,0.2-1.1c0.1-0.3,0.3-0.6,0.6-0.9c0.3-0.3,0.6-0.5,0.9-0.6c0.3-0.1,0.7-0.2,1.1-0.2c0.4,0,0.8,0.1,1.1,0.2
			c0.3,0.1,0.6,0.3,0.9,0.6c0.2,0.3,0.4,0.6,0.6,0.9c0.1,0.3,0.2,0.7,0.2,1.1C231.8,58.2,231.7,58.6,231.6,59"/>
		<path class="st1" d="M136.7,97.3h-1.9c-0.9,0-1.1,0.8-0.6,1.3l2.4,3.1v19.4c0,0.8,0.3,1.5,0.9,2.1l1.7,1.5
			c0.5,0.5,1.2,0.7,1.8,0.7h30.8V97.3h-32.8H136.7z M140.9,101.9h2.9v0h22.7v18.9h-24.3v-15.9l-1.6-2.1
			C140.2,102.4,140.3,101.9,140.9,101.9"/>
		<polygon class="st1" points="179,113.9 178.5,113.4 178.5,112.6 179,112.2 180.3,112.2 181,112.8 181.7,112.1 180.9,111.3 
			178.4,111.3 177.4,112.2 177.4,113.8 178.4,114.8 180.3,114.8 180.8,115.2 180.8,116.1 180.3,116.5 178.7,116.5 178,115.9 
			177.3,116.6 178.2,117.4 180.9,117.4 181.9,116.5 181.9,114.8 180.9,113.9 		"/>
		<polygon class="st1" points="182.9,112.2 183.8,112.2 183.8,116.5 182.9,116.5 182.9,117.4 185.8,117.4 185.8,116.5 184.9,116.5 
			184.9,112.2 185.8,112.2 185.8,111.3 182.9,111.3 		"/>
		<polygon class="st1" points="190.7,115.9 190.6,115.9 190.4,115.1 188.7,111.3 187.2,111.3 187.2,117.4 188.2,117.4 188.2,112.8 
			188.3,112.8 188.5,113.6 190.2,117.4 191.7,117.4 191.7,111.3 190.7,111.3 		"/>
		<polygon class="st1" points="196.3,116.5 194.8,116.5 194.4,116 194.4,112.7 194.8,112.2 196.2,112.2 196.9,112.8 197.6,112.1 
			196.8,111.3 194.2,111.3 193.3,112.2 193.3,116.5 194.2,117.4 196.9,117.4 197.8,116.5 197,115.8 		"/>
		<polygon class="st1" points="198.9,117.4 202.7,117.4 202.7,116.5 200,116.5 200,114.7 202.4,114.7 202.4,113.8 200,113.8 
			200,112.2 202.7,112.2 202.7,111.3 198.9,111.3 		"/>
		<polygon class="st1" points="208,111.3 206,111.3 206,112.2 206.9,112.2 206.9,116.5 206,116.5 206,117.4 208.9,117.4 
			208.9,116.5 208,116.5 		"/>
		<path class="st1" d="M211.1,111.3l-1,1v2l1,1h1.9l0.4-0.3v1.2l-0.5,0.5h-1.5l-0.6-0.6l-0.7,0.7l0.8,0.8h2.7l1-1v-4.2l-1-1H211.1z
			 M213.3,113.9l-0.5,0.5h-1.2l-0.5-0.5v-1.3l0.5-0.5h1.2l0.5,0.5V113.9z"/>
		<polygon class="st1" points="215.6,111.3 215.6,113 216.7,113 216.7,112.3 218.5,112.3 218.5,112.3 216.9,114.7 216.9,117.4 
			218,117.4 218,115 219.8,112.2 219.3,111.3 		"/>
		<polygon class="st1" points="220.4,111.3 220.4,113 221.5,113 221.5,112.3 223.4,112.3 223.4,112.3 221.8,114.7 221.8,117.4 
			222.9,117.4 222.9,115 224.7,112.2 224.1,111.3 		"/>
		<path class="st1" d="M226.8,100.5h-2.7l0,0h-20l0-16l15.6,0l2.4-3.1c0.5-0.6,0.3-1.3-0.6-1.3l-7.7,0V60h2.9h2.9l2.4-3.1
			c0.5-0.6,0.3-1.3-0.6-1.3H220h-24.2h-15.1V60h5.5c0,0,0.1,0.1,0.1,0.1l2.6,3.3v1.5h0V80h-7.7v4.4h17.6v16h-21.5v4.6h17.9h25.6h4.1
			l2.5-3.2C227.9,101.2,227.7,100.5,226.8,100.5 M194.2,80v-17l-1.7-2.1c-0.3-0.4-0.2-0.9,0.4-0.9h1.3v0h14.3v20H194.2z"/>
	</g>
	<rect x="0" class="st0" width="352" height="176"/>
</g>
</svg>
